<mxfile host="app.diagrams.net" agent="Mozilla/5.0 (Windows NT 10.0; Win64; x64) AppleWebKit/537.36 (KHTML, like Gecko) Chrome/134.0.0.0 Safari/537.36" version="26.1.3">
  <diagram name="Page-1" id="2YBvvXClWsGukQMizWep">
    <mxGraphModel grid="1" page="1" gridSize="10" guides="1" tooltips="1" connect="1" arrows="1" fold="1" pageScale="1" pageWidth="850" pageHeight="1100" math="0" shadow="0">
      <root>
        <mxCell id="0" />
        <mxCell id="1" parent="0" />
        <mxCell id="aM9ryv3xv72pqoxQDRHE-5" value=":Client" style="shape=umlLifeline;perimeter=lifelinePerimeter;whiteSpace=wrap;html=1;container=0;dropTarget=0;collapsible=0;recursiveResize=0;outlineConnect=0;portConstraint=eastwest;newEdgeStyle={&quot;edgeStyle&quot;:&quot;elbowEdgeStyle&quot;,&quot;elbow&quot;:&quot;vertical&quot;,&quot;curved&quot;:0,&quot;rounded&quot;:0};" vertex="1" parent="1">
          <mxGeometry x="355" y="90" width="100" height="1200" as="geometry" />
        </mxCell>
        <mxCell id="e8dn4UOm1JDdTKsrlfhE-102" value="" style="html=1;points=[];perimeter=orthogonalPerimeter;outlineConnect=0;targetShapes=umlLifeline;portConstraint=eastwest;newEdgeStyle={&quot;edgeStyle&quot;:&quot;elbowEdgeStyle&quot;,&quot;elbow&quot;:&quot;vertical&quot;,&quot;curved&quot;:0,&quot;rounded&quot;:0};" vertex="1" parent="aM9ryv3xv72pqoxQDRHE-5">
          <mxGeometry x="45" y="150" width="10" height="1000" as="geometry" />
        </mxCell>
        <mxCell id="e8dn4UOm1JDdTKsrlfhE-1" value=":Server" style="shape=umlLifeline;perimeter=lifelinePerimeter;whiteSpace=wrap;html=1;container=0;dropTarget=0;collapsible=0;recursiveResize=0;outlineConnect=0;portConstraint=eastwest;newEdgeStyle={&quot;edgeStyle&quot;:&quot;elbowEdgeStyle&quot;,&quot;elbow&quot;:&quot;vertical&quot;,&quot;curved&quot;:0,&quot;rounded&quot;:0};" vertex="1" parent="1">
          <mxGeometry x="535" y="90" width="100" height="1200" as="geometry" />
        </mxCell>
        <mxCell id="e8dn4UOm1JDdTKsrlfhE-103" value="" style="html=1;points=[];perimeter=orthogonalPerimeter;outlineConnect=0;targetShapes=umlLifeline;portConstraint=eastwest;newEdgeStyle={&quot;edgeStyle&quot;:&quot;elbowEdgeStyle&quot;,&quot;elbow&quot;:&quot;vertical&quot;,&quot;curved&quot;:0,&quot;rounded&quot;:0};" vertex="1" parent="e8dn4UOm1JDdTKsrlfhE-1">
          <mxGeometry x="45" y="920" width="10" height="190" as="geometry" />
        </mxCell>
        <mxCell id="e8dn4UOm1JDdTKsrlfhE-166" value="" style="html=1;points=[];perimeter=orthogonalPerimeter;outlineConnect=0;targetShapes=umlLifeline;portConstraint=eastwest;newEdgeStyle={&quot;edgeStyle&quot;:&quot;elbowEdgeStyle&quot;,&quot;elbow&quot;:&quot;vertical&quot;,&quot;curved&quot;:0,&quot;rounded&quot;:0};" vertex="1" parent="e8dn4UOm1JDdTKsrlfhE-1">
          <mxGeometry x="45" y="160" width="10" height="100" as="geometry" />
        </mxCell>
        <mxCell id="e8dn4UOm1JDdTKsrlfhE-3" value=":Database" style="shape=umlLifeline;perimeter=lifelinePerimeter;whiteSpace=wrap;html=1;container=0;dropTarget=0;collapsible=0;recursiveResize=0;outlineConnect=0;portConstraint=eastwest;newEdgeStyle={&quot;edgeStyle&quot;:&quot;elbowEdgeStyle&quot;,&quot;elbow&quot;:&quot;vertical&quot;,&quot;curved&quot;:0,&quot;rounded&quot;:0};" vertex="1" parent="1">
          <mxGeometry x="715" y="90" width="100" height="1200" as="geometry" />
        </mxCell>
        <mxCell id="e8dn4UOm1JDdTKsrlfhE-105" value="Добавление объявления" style="ellipse;whiteSpace=wrap;html=1;fontSize=9;" vertex="1" parent="1">
          <mxGeometry x="60" y="240" width="120" height="60" as="geometry" />
        </mxCell>
        <mxCell id="e8dn4UOm1JDdTKsrlfhE-106" value="&lt;font&gt;Нажатие кнопки &quot;Сдать жилье&quot;&lt;/font&gt;" style="html=1;verticalAlign=bottom;endArrow=block;edgeStyle=elbowEdgeStyle;elbow=vertical;curved=0;rounded=0;fontSize=9;" edge="1" parent="1">
          <mxGeometry relative="1" as="geometry">
            <mxPoint x="230" y="259.70000000000005" as="sourcePoint" />
            <Array as="points">
              <mxPoint x="315" y="259.70000000000005" />
            </Array>
            <mxPoint x="400" y="259.70000000000005" as="targetPoint" />
          </mxGeometry>
        </mxCell>
        <mxCell id="e8dn4UOm1JDdTKsrlfhE-107" value="&lt;font&gt;Запрос на получение объявлений&lt;br&gt;по id владельца&lt;/font&gt;" style="html=1;verticalAlign=bottom;endArrow=block;edgeStyle=elbowEdgeStyle;elbow=vertical;curved=0;rounded=0;fontSize=9;" edge="1" parent="1">
          <mxGeometry relative="1" as="geometry">
            <mxPoint x="590" y="289.74" as="sourcePoint" />
            <Array as="points">
              <mxPoint x="675" y="289.74" />
            </Array>
            <mxPoint x="760" y="289.74" as="targetPoint" />
          </mxGeometry>
        </mxCell>
        <mxCell id="e8dn4UOm1JDdTKsrlfhE-108" value="&lt;font&gt;GET /properties/?ownerId=...&lt;/font&gt;" style="html=1;verticalAlign=bottom;endArrow=block;edgeStyle=elbowEdgeStyle;elbow=vertical;curved=0;rounded=0;fontSize=9;" edge="1" parent="1">
          <mxGeometry relative="1" as="geometry">
            <mxPoint x="410" y="274.74" as="sourcePoint" />
            <Array as="points">
              <mxPoint x="495" y="274.74" />
            </Array>
            <mxPoint x="580" y="274.74" as="targetPoint" />
          </mxGeometry>
        </mxCell>
        <mxCell id="e8dn4UOm1JDdTKsrlfhE-109" value="Ответ на запрос" style="html=1;verticalAlign=bottom;endArrow=open;dashed=1;endSize=8;edgeStyle=elbowEdgeStyle;elbow=vertical;curved=0;rounded=0;fontSize=9;" edge="1" parent="1">
          <mxGeometry relative="1" as="geometry">
            <mxPoint x="590" y="310.0000000000002" as="targetPoint" />
            <Array as="points">
              <mxPoint x="680" y="310.0000000000002" />
            </Array>
            <mxPoint x="760" y="310.0000000000002" as="sourcePoint" />
          </mxGeometry>
        </mxCell>
        <mxCell id="e8dn4UOm1JDdTKsrlfhE-113" value="" style="group" connectable="0" vertex="1" parent="1">
          <mxGeometry x="410" y="330" width="170" height="20" as="geometry" />
        </mxCell>
        <mxCell id="e8dn4UOm1JDdTKsrlfhE-111" value="200 OK" style="html=1;verticalAlign=bottom;endArrow=open;dashed=1;endSize=8;edgeStyle=elbowEdgeStyle;elbow=vertical;curved=0;rounded=0;fontSize=9;" edge="1" parent="e8dn4UOm1JDdTKsrlfhE-113">
          <mxGeometry relative="1" as="geometry">
            <mxPoint y="2.2737367544323206e-13" as="targetPoint" />
            <Array as="points">
              <mxPoint x="90" y="2.2737367544323206e-13" />
            </Array>
            <mxPoint x="170" y="2.2737367544323206e-13" as="sourcePoint" />
          </mxGeometry>
        </mxCell>
        <mxCell id="e8dn4UOm1JDdTKsrlfhE-112" value="- List&amp;lt;Properties&amp;gt;" style="text;html=1;align=center;verticalAlign=middle;resizable=0;points=[];autosize=1;strokeColor=none;fillColor=none;fontSize=9;" vertex="1" parent="e8dn4UOm1JDdTKsrlfhE-113">
          <mxGeometry x="40" width="90" height="20" as="geometry" />
        </mxCell>
        <mxCell id="e8dn4UOm1JDdTKsrlfhE-114" value="Отображение страницы &quot;Сдать жилье&quot;" style="html=1;verticalAlign=bottom;endArrow=open;dashed=1;endSize=8;edgeStyle=elbowEdgeStyle;elbow=vertical;curved=0;rounded=0;fontSize=9;" edge="1" parent="1">
          <mxGeometry relative="1" as="geometry">
            <mxPoint x="230" y="350" as="targetPoint" />
            <Array as="points">
              <mxPoint x="320" y="350" />
            </Array>
            <mxPoint x="400" y="350" as="sourcePoint" />
          </mxGeometry>
        </mxCell>
        <mxCell id="e8dn4UOm1JDdTKsrlfhE-115" value="&lt;font&gt;Нажатие кнопки &quot;Разместить объявление&quot;&lt;/font&gt;" style="html=1;verticalAlign=bottom;endArrow=block;edgeStyle=elbowEdgeStyle;elbow=vertical;curved=0;rounded=0;fontSize=8;" edge="1" parent="1">
          <mxGeometry relative="1" as="geometry">
            <mxPoint x="230" y="380" as="sourcePoint" />
            <Array as="points">
              <mxPoint x="315" y="380" />
            </Array>
            <mxPoint x="400" y="380" as="targetPoint" />
          </mxGeometry>
        </mxCell>
        <mxCell id="e8dn4UOm1JDdTKsrlfhE-116" value="Отображение экрана выбора категорий" style="html=1;verticalAlign=bottom;endArrow=open;dashed=1;endSize=8;edgeStyle=elbowEdgeStyle;elbow=vertical;curved=0;rounded=0;fontSize=9;" edge="1" parent="1">
          <mxGeometry relative="1" as="geometry">
            <mxPoint x="230" y="400" as="targetPoint" />
            <Array as="points">
              <mxPoint x="320" y="400" />
            </Array>
            <mxPoint x="400" y="400" as="sourcePoint" />
          </mxGeometry>
        </mxCell>
        <mxCell id="e8dn4UOm1JDdTKsrlfhE-117" value="&lt;font&gt;Выбрать категории&lt;/font&gt;" style="html=1;verticalAlign=bottom;endArrow=block;edgeStyle=elbowEdgeStyle;elbow=vertical;curved=0;rounded=0;fontSize=9;" edge="1" parent="1">
          <mxGeometry relative="1" as="geometry">
            <mxPoint x="230" y="420" as="sourcePoint" />
            <Array as="points">
              <mxPoint x="315" y="420" />
            </Array>
            <mxPoint x="400" y="420" as="targetPoint" />
          </mxGeometry>
        </mxCell>
        <mxCell id="e8dn4UOm1JDdTKsrlfhE-118" value="Сохранить категории" style="html=1;align=left;spacingLeft=2;endArrow=block;rounded=0;edgeStyle=orthogonalEdgeStyle;curved=0;rounded=0;fontSize=9;" edge="1" parent="1">
          <mxGeometry relative="1" as="geometry">
            <mxPoint x="410" y="429.99800000000005" as="sourcePoint" />
            <Array as="points">
              <mxPoint x="425" y="430" />
              <mxPoint x="425" y="450" />
            </Array>
            <mxPoint x="410" y="450" as="targetPoint" />
          </mxGeometry>
        </mxCell>
        <mxCell id="e8dn4UOm1JDdTKsrlfhE-119" value="Отображение экрана ввода&lt;div&gt;основной информации&lt;/div&gt;" style="html=1;verticalAlign=bottom;endArrow=open;dashed=1;endSize=8;edgeStyle=elbowEdgeStyle;elbow=vertical;curved=0;rounded=0;fontSize=9;" edge="1" parent="1">
          <mxGeometry relative="1" as="geometry">
            <mxPoint x="230" y="460" as="targetPoint" />
            <Array as="points">
              <mxPoint x="320" y="460" />
            </Array>
            <mxPoint x="400" y="460" as="sourcePoint" />
          </mxGeometry>
        </mxCell>
        <mxCell id="e8dn4UOm1JDdTKsrlfhE-120" value="&lt;font&gt;Ввод основной информации&lt;/font&gt;" style="html=1;verticalAlign=bottom;endArrow=block;edgeStyle=elbowEdgeStyle;elbow=vertical;curved=0;rounded=0;fontSize=9;" edge="1" parent="1">
          <mxGeometry relative="1" as="geometry">
            <mxPoint x="230" y="490" as="sourcePoint" />
            <Array as="points">
              <mxPoint x="315" y="490" />
            </Array>
            <mxPoint x="400" y="490" as="targetPoint" />
          </mxGeometry>
        </mxCell>
        <mxCell id="e8dn4UOm1JDdTKsrlfhE-129" value=":AI API" style="shape=umlLifeline;perimeter=lifelinePerimeter;whiteSpace=wrap;html=1;container=0;dropTarget=0;collapsible=0;recursiveResize=0;outlineConnect=0;portConstraint=eastwest;newEdgeStyle={&quot;edgeStyle&quot;:&quot;elbowEdgeStyle&quot;,&quot;elbow&quot;:&quot;vertical&quot;,&quot;curved&quot;:0,&quot;rounded&quot;:0};" vertex="1" parent="1">
          <mxGeometry x="895" y="90" width="100" height="1200" as="geometry" />
        </mxCell>
        <mxCell id="e8dn4UOm1JDdTKsrlfhE-137" value="Валидация данных" style="html=1;align=left;spacingLeft=2;endArrow=block;rounded=0;edgeStyle=orthogonalEdgeStyle;curved=0;rounded=0;fontSize=9;" edge="1" parent="1">
          <mxGeometry relative="1" as="geometry">
            <mxPoint x="410" y="499.99800000000005" as="sourcePoint" />
            <Array as="points">
              <mxPoint x="425" y="500" />
              <mxPoint x="425" y="520" />
            </Array>
            <mxPoint x="410" y="520" as="targetPoint" />
          </mxGeometry>
        </mxCell>
        <mxCell id="e8dn4UOm1JDdTKsrlfhE-139" value="&lt;font size=&quot;1&quot;&gt;[информация валидна]&lt;/font&gt;" style="text;html=1;align=center;verticalAlign=middle;resizable=0;points=[];autosize=1;strokeColor=none;fillColor=none;" vertex="1" parent="1">
          <mxGeometry x="255" y="520" width="130" height="30" as="geometry" />
        </mxCell>
        <mxCell id="e8dn4UOm1JDdTKsrlfhE-121" value="Сохранить основную&lt;div&gt;информацию&lt;/div&gt;" style="html=1;align=left;spacingLeft=2;endArrow=block;rounded=0;edgeStyle=orthogonalEdgeStyle;curved=0;rounded=0;fontSize=9;" edge="1" parent="1">
          <mxGeometry relative="1" as="geometry">
            <mxPoint x="410" y="539.998" as="sourcePoint" />
            <Array as="points">
              <mxPoint x="425" y="540" />
              <mxPoint x="425" y="560" />
            </Array>
            <mxPoint x="410" y="560" as="targetPoint" />
          </mxGeometry>
        </mxCell>
        <mxCell id="e8dn4UOm1JDdTKsrlfhE-140" value="" style="endArrow=none;dashed=1;html=1;rounded=0;entryX=-0.001;entryY=0.496;entryDx=0;entryDy=0;entryPerimeter=0;exitX=0.995;exitY=0.496;exitDx=0;exitDy=0;exitPerimeter=0;" edge="1" parent="1">
          <mxGeometry width="50" height="50" relative="1" as="geometry">
            <mxPoint x="528.6399999999996" y="570" as="sourcePoint" />
            <mxPoint x="189.9999999999999" y="570" as="targetPoint" />
          </mxGeometry>
        </mxCell>
        <mxCell id="e8dn4UOm1JDdTKsrlfhE-141" value="&lt;font size=&quot;1&quot;&gt;[информация невалидна]&lt;/font&gt;" style="text;html=1;align=center;verticalAlign=middle;resizable=0;points=[];autosize=1;strokeColor=none;fillColor=none;" vertex="1" parent="1">
          <mxGeometry x="250" y="565" width="140" height="30" as="geometry" />
        </mxCell>
        <mxCell id="e8dn4UOm1JDdTKsrlfhE-142" value="Отображение экрана ввода&lt;div&gt;основной информации с ошибкой&lt;/div&gt;" style="html=1;verticalAlign=bottom;endArrow=open;dashed=1;endSize=8;edgeStyle=elbowEdgeStyle;elbow=vertical;curved=0;rounded=0;fontSize=9;" edge="1" parent="1">
          <mxGeometry relative="1" as="geometry">
            <mxPoint x="230" y="630" as="targetPoint" />
            <Array as="points">
              <mxPoint x="320" y="630" />
            </Array>
            <mxPoint x="400" y="630" as="sourcePoint" />
          </mxGeometry>
        </mxCell>
        <mxCell id="e8dn4UOm1JDdTKsrlfhE-104" value="" style="html=1;points=[];perimeter=orthogonalPerimeter;outlineConnect=0;targetShapes=umlLifeline;portConstraint=eastwest;newEdgeStyle={&quot;edgeStyle&quot;:&quot;elbowEdgeStyle&quot;,&quot;elbow&quot;:&quot;vertical&quot;,&quot;curved&quot;:0,&quot;rounded&quot;:0};" vertex="1" parent="1">
          <mxGeometry x="760" y="250" width="10" height="90" as="geometry" />
        </mxCell>
        <mxCell id="e8dn4UOm1JDdTKsrlfhE-122" value="Отобразить экран&amp;nbsp;&lt;div&gt;добавления фотографий&lt;/div&gt;" style="html=1;verticalAlign=bottom;endArrow=open;dashed=1;endSize=8;edgeStyle=elbowEdgeStyle;elbow=vertical;curved=0;rounded=0;fontSize=9;" edge="1" parent="1">
          <mxGeometry relative="1" as="geometry">
            <mxPoint x="230" y="690" as="targetPoint" />
            <Array as="points">
              <mxPoint x="320" y="690" />
            </Array>
            <mxPoint x="400" y="690" as="sourcePoint" />
          </mxGeometry>
        </mxCell>
        <mxCell id="e8dn4UOm1JDdTKsrlfhE-123" value="&lt;font&gt;Добавить фотографии&lt;/font&gt;" style="html=1;verticalAlign=bottom;endArrow=block;edgeStyle=elbowEdgeStyle;elbow=vertical;curved=0;rounded=0;fontSize=9;" edge="1" parent="1">
          <mxGeometry relative="1" as="geometry">
            <mxPoint x="230" y="710" as="sourcePoint" />
            <Array as="points">
              <mxPoint x="315" y="710" />
            </Array>
            <mxPoint x="400" y="710" as="targetPoint" />
          </mxGeometry>
        </mxCell>
        <mxCell id="e8dn4UOm1JDdTKsrlfhE-124" value="Сохранить фотографии" style="html=1;align=left;spacingLeft=2;endArrow=block;rounded=0;edgeStyle=orthogonalEdgeStyle;curved=0;rounded=0;fontSize=9;" edge="1" parent="1">
          <mxGeometry relative="1" as="geometry">
            <mxPoint x="410" y="719.998" as="sourcePoint" />
            <Array as="points">
              <mxPoint x="425" y="720" />
              <mxPoint x="425" y="740" />
            </Array>
            <mxPoint x="410" y="740" as="targetPoint" />
          </mxGeometry>
        </mxCell>
        <mxCell id="e8dn4UOm1JDdTKsrlfhE-125" value="Отобразить экран ввода описания&lt;div&gt;и стоимости аренды&lt;/div&gt;" style="html=1;verticalAlign=bottom;endArrow=open;dashed=1;endSize=8;edgeStyle=elbowEdgeStyle;elbow=vertical;curved=0;rounded=0;fontSize=9;" edge="1" parent="1">
          <mxGeometry relative="1" as="geometry">
            <mxPoint x="230" y="760" as="targetPoint" />
            <Array as="points">
              <mxPoint x="320" y="760" />
            </Array>
            <mxPoint x="400" y="760" as="sourcePoint" />
          </mxGeometry>
        </mxCell>
        <mxCell id="e8dn4UOm1JDdTKsrlfhE-127" value="&lt;font&gt;Нажатие кнопки &quot;Сгенерировать с AI&quot;&lt;/font&gt;" style="html=1;verticalAlign=bottom;endArrow=block;edgeStyle=elbowEdgeStyle;elbow=vertical;curved=0;rounded=0;fontSize=9;" edge="1" parent="1">
          <mxGeometry relative="1" as="geometry">
            <mxPoint x="230" y="814.71" as="sourcePoint" />
            <Array as="points">
              <mxPoint x="315" y="814.71" />
            </Array>
            <mxPoint x="400" y="814.71" as="targetPoint" />
          </mxGeometry>
        </mxCell>
        <mxCell id="e8dn4UOm1JDdTKsrlfhE-128" value="&lt;font&gt;GET /ai/generate-description/&lt;/font&gt;" style="html=1;verticalAlign=bottom;endArrow=block;edgeStyle=elbowEdgeStyle;elbow=vertical;curved=0;rounded=0;fontSize=9;" edge="1" parent="1">
          <mxGeometry x="-0.002" relative="1" as="geometry">
            <mxPoint x="410" y="824.71" as="sourcePoint" />
            <Array as="points">
              <mxPoint x="495" y="824.71" />
            </Array>
            <mxPoint x="580" y="824.71" as="targetPoint" />
            <mxPoint as="offset" />
          </mxGeometry>
        </mxCell>
        <mxCell id="e8dn4UOm1JDdTKsrlfhE-132" value="" style="html=1;points=[];perimeter=orthogonalPerimeter;outlineConnect=0;targetShapes=umlLifeline;portConstraint=eastwest;newEdgeStyle={&quot;edgeStyle&quot;:&quot;elbowEdgeStyle&quot;,&quot;elbow&quot;:&quot;vertical&quot;,&quot;curved&quot;:0,&quot;rounded&quot;:0};" vertex="1" parent="1">
          <mxGeometry x="940" y="834.71" width="10" height="50" as="geometry" />
        </mxCell>
        <mxCell id="e8dn4UOm1JDdTKsrlfhE-144" value="&lt;font&gt;Запрос на генерацию описания по введенным данным&lt;/font&gt;" style="html=1;verticalAlign=bottom;endArrow=block;edgeStyle=elbowEdgeStyle;elbow=vertical;curved=0;rounded=0;fontSize=9;" edge="1" parent="1" target="e8dn4UOm1JDdTKsrlfhE-132">
          <mxGeometry x="-0.0008" relative="1" as="geometry">
            <mxPoint x="590" y="844.4200000000001" as="sourcePoint" />
            <Array as="points">
              <mxPoint x="675" y="844.4200000000001" />
            </Array>
            <mxPoint x="760" y="844.4200000000001" as="targetPoint" />
            <mxPoint as="offset" />
          </mxGeometry>
        </mxCell>
        <mxCell id="e8dn4UOm1JDdTKsrlfhE-146" value="" style="html=1;points=[];perimeter=orthogonalPerimeter;outlineConnect=0;targetShapes=umlLifeline;portConstraint=eastwest;newEdgeStyle={&quot;edgeStyle&quot;:&quot;elbowEdgeStyle&quot;,&quot;elbow&quot;:&quot;vertical&quot;,&quot;curved&quot;:0,&quot;rounded&quot;:0};" vertex="1" parent="1">
          <mxGeometry x="580" y="804.71" width="10" height="100" as="geometry" />
        </mxCell>
        <mxCell id="e8dn4UOm1JDdTKsrlfhE-147" value="&lt;font&gt;- property_info&lt;/font&gt;" style="text;html=1;align=center;verticalAlign=middle;resizable=0;points=[];autosize=1;strokeColor=none;fillColor=none;fontSize=9;" vertex="1" parent="1">
          <mxGeometry x="455" y="819.71" width="80" height="20" as="geometry" />
        </mxCell>
        <mxCell id="e8dn4UOm1JDdTKsrlfhE-150" value="200 OK" style="html=1;verticalAlign=bottom;endArrow=open;dashed=1;endSize=8;edgeStyle=elbowEdgeStyle;elbow=vertical;curved=0;rounded=0;fontSize=9;" edge="1" parent="1">
          <mxGeometry relative="1" as="geometry">
            <mxPoint x="410" y="894.71" as="targetPoint" />
            <Array as="points">
              <mxPoint x="500" y="894.71" />
            </Array>
            <mxPoint x="580" y="894.71" as="sourcePoint" />
          </mxGeometry>
        </mxCell>
        <mxCell id="e8dn4UOm1JDdTKsrlfhE-151" value="Сгенерированное описание" style="html=1;verticalAlign=bottom;endArrow=open;dashed=1;endSize=8;edgeStyle=elbowEdgeStyle;elbow=vertical;curved=0;rounded=0;fontSize=9;" edge="1" parent="1" source="e8dn4UOm1JDdTKsrlfhE-132">
          <mxGeometry relative="1" as="geometry">
            <mxPoint x="590" y="874.54" as="targetPoint" />
            <Array as="points">
              <mxPoint x="680" y="874.54" />
            </Array>
            <mxPoint x="760" y="874.54" as="sourcePoint" />
          </mxGeometry>
        </mxCell>
        <mxCell id="e8dn4UOm1JDdTKsrlfhE-152" value="&lt;font&gt;- description&lt;/font&gt;" style="text;html=1;align=center;verticalAlign=middle;resizable=0;points=[];autosize=1;strokeColor=none;fillColor=none;fontSize=9;" vertex="1" parent="1">
          <mxGeometry x="460" y="894.71" width="70" height="20" as="geometry" />
        </mxCell>
        <mxCell id="e8dn4UOm1JDdTKsrlfhE-153" value="Отобразить в поле ввода&lt;div&gt;сгенерированное описание&lt;/div&gt;" style="html=1;verticalAlign=bottom;endArrow=open;dashed=1;endSize=8;edgeStyle=elbowEdgeStyle;elbow=vertical;curved=0;rounded=0;fontSize=9;" edge="1" parent="1">
          <mxGeometry relative="1" as="geometry">
            <mxPoint x="230" y="914.71" as="targetPoint" />
            <Array as="points">
              <mxPoint x="320" y="914.71" />
            </Array>
            <mxPoint x="400" y="914.71" as="sourcePoint" />
          </mxGeometry>
        </mxCell>
        <mxCell id="e8dn4UOm1JDdTKsrlfhE-154" value="Добавить стоимость&amp;nbsp;&lt;div&gt;аренды и&amp;nbsp;&lt;span style=&quot;background-color: light-dark(#ffffff, var(--ge-dark-color, #121212)); color: light-dark(rgb(0, 0, 0), rgb(255, 255, 255));&quot;&gt;описание&amp;nbsp;&lt;/span&gt;&lt;/div&gt;" style="html=1;verticalAlign=bottom;endArrow=block;edgeStyle=elbowEdgeStyle;elbow=vertical;curved=0;rounded=0;fontSize=9;" edge="1" parent="1">
          <mxGeometry relative="1" as="geometry">
            <mxPoint x="230" y="970" as="sourcePoint" />
            <Array as="points">
              <mxPoint x="315" y="970" />
            </Array>
            <mxPoint x="400" y="970" as="targetPoint" />
          </mxGeometry>
        </mxCell>
        <mxCell id="e8dn4UOm1JDdTKsrlfhE-155" value="[генерация с AI]" style="text;html=1;align=center;verticalAlign=middle;resizable=0;points=[];autosize=1;strokeColor=none;fillColor=none;fontSize=9;" vertex="1" parent="1">
          <mxGeometry x="265" y="780" width="90" height="20" as="geometry" />
        </mxCell>
        <mxCell id="e8dn4UOm1JDdTKsrlfhE-156" value="Валидация данных" style="html=1;align=left;spacingLeft=2;endArrow=block;rounded=0;edgeStyle=orthogonalEdgeStyle;curved=0;rounded=0;fontSize=9;" edge="1" parent="1">
          <mxGeometry relative="1" as="geometry">
            <mxPoint x="410" y="979.998" as="sourcePoint" />
            <Array as="points">
              <mxPoint x="425" y="980" />
              <mxPoint x="425" y="1000" />
            </Array>
            <mxPoint x="410" y="1000" as="targetPoint" />
          </mxGeometry>
        </mxCell>
        <mxCell id="e8dn4UOm1JDdTKsrlfhE-157" value="Нажатие кнопки &quot;Далее&quot;" style="html=1;verticalAlign=bottom;endArrow=block;edgeStyle=elbowEdgeStyle;elbow=vertical;curved=0;rounded=0;fontSize=9;" edge="1" parent="1">
          <mxGeometry relative="1" as="geometry">
            <mxPoint x="230" y="1010" as="sourcePoint" />
            <Array as="points">
              <mxPoint x="315" y="1010" />
            </Array>
            <mxPoint x="400" y="1010" as="targetPoint" />
          </mxGeometry>
        </mxCell>
        <mxCell id="e8dn4UOm1JDdTKsrlfhE-159" value="POST /properties/" style="html=1;verticalAlign=bottom;endArrow=block;edgeStyle=elbowEdgeStyle;elbow=vertical;curved=0;rounded=0;fontSize=9;" edge="1" parent="1">
          <mxGeometry relative="1" as="geometry">
            <mxPoint x="410" y="1030" as="sourcePoint" />
            <Array as="points">
              <mxPoint x="495" y="1030" />
            </Array>
            <mxPoint x="580" y="1030" as="targetPoint" />
          </mxGeometry>
        </mxCell>
        <mxCell id="e8dn4UOm1JDdTKsrlfhE-160" value="&lt;font&gt;- ownerId&lt;/font&gt;&lt;div&gt;- address&lt;/div&gt;&lt;div&gt;- description&lt;/div&gt;&lt;div&gt;- cost&lt;/div&gt;&lt;div&gt;- area&lt;/div&gt;&lt;div&gt;- bedrooms&lt;/div&gt;&lt;div&gt;- sleepingPlaces&lt;/div&gt;&lt;div&gt;- bathrooms&lt;/div&gt;&lt;div&gt;- maxGuests&lt;/div&gt;&lt;div&gt;- List&amp;lt;Facility&amp;gt;&lt;/div&gt;&lt;div&gt;- List&amp;lt;Category&amp;gt;&lt;/div&gt;&lt;div&gt;- List&amp;lt;Image&amp;gt;&lt;/div&gt;" style="text;html=1;align=left;verticalAlign=middle;resizable=0;points=[];autosize=1;strokeColor=none;fillColor=none;fontSize=9;" vertex="1" parent="1">
          <mxGeometry x="461.29999999999995" y="1030" width="90" height="140" as="geometry" />
        </mxCell>
        <mxCell id="e8dn4UOm1JDdTKsrlfhE-161" value="Запрос на создание объявления" style="html=1;verticalAlign=bottom;endArrow=block;edgeStyle=elbowEdgeStyle;elbow=vertical;curved=0;rounded=0;fontSize=9;" edge="1" parent="1">
          <mxGeometry relative="1" as="geometry">
            <mxPoint x="590" y="1050" as="sourcePoint" />
            <Array as="points">
              <mxPoint x="675" y="1050" />
            </Array>
            <mxPoint x="760" y="1050" as="targetPoint" />
          </mxGeometry>
        </mxCell>
        <mxCell id="e8dn4UOm1JDdTKsrlfhE-162" value="Ответ на запрос" style="html=1;verticalAlign=bottom;endArrow=open;dashed=1;endSize=8;edgeStyle=elbowEdgeStyle;elbow=vertical;curved=0;rounded=0;fontSize=9;" edge="1" parent="1">
          <mxGeometry relative="1" as="geometry">
            <mxPoint x="590" y="1070" as="targetPoint" />
            <Array as="points">
              <mxPoint x="680" y="1070" />
            </Array>
            <mxPoint x="760" y="1070" as="sourcePoint" />
          </mxGeometry>
        </mxCell>
        <mxCell id="e8dn4UOm1JDdTKsrlfhE-163" value="201 CREATED" style="html=1;verticalAlign=bottom;endArrow=open;dashed=1;endSize=8;edgeStyle=elbowEdgeStyle;elbow=vertical;curved=0;rounded=0;fontSize=9;" edge="1" parent="1">
          <mxGeometry relative="1" as="geometry">
            <mxPoint x="410" y="1190" as="targetPoint" />
            <Array as="points">
              <mxPoint x="500" y="1190" />
            </Array>
            <mxPoint x="580" y="1190" as="sourcePoint" />
          </mxGeometry>
        </mxCell>
        <mxCell id="e8dn4UOm1JDdTKsrlfhE-164" value="Уведомить об отправке&lt;div&gt;объявления на модерацию&lt;/div&gt;" style="html=1;verticalAlign=bottom;endArrow=open;dashed=1;endSize=8;edgeStyle=elbowEdgeStyle;elbow=vertical;curved=0;rounded=0;fontSize=9;" edge="1" parent="1">
          <mxGeometry relative="1" as="geometry">
            <mxPoint x="230" y="1210" as="targetPoint" />
            <Array as="points">
              <mxPoint x="320" y="1210" />
            </Array>
            <mxPoint x="400" y="1210" as="sourcePoint" />
          </mxGeometry>
        </mxCell>
        <mxCell id="e8dn4UOm1JDdTKsrlfhE-165" value="" style="group" connectable="0" vertex="1" parent="1">
          <mxGeometry x="180" y="90" width="90" height="1210" as="geometry" />
        </mxCell>
        <mxCell id="e8dn4UOm1JDdTKsrlfhE-6" value="" style="shape=umlLifeline;perimeter=lifelinePerimeter;whiteSpace=wrap;html=1;container=1;dropTarget=0;collapsible=0;recursiveResize=0;outlineConnect=0;portConstraint=eastwest;newEdgeStyle={&quot;curved&quot;:0,&quot;rounded&quot;:0};participant=umlActor;" vertex="1" parent="e8dn4UOm1JDdTKsrlfhE-165">
          <mxGeometry x="35" width="20" height="1202.142857142857" as="geometry" />
        </mxCell>
        <mxCell id="e8dn4UOm1JDdTKsrlfhE-101" value="" style="html=1;points=[];perimeter=orthogonalPerimeter;outlineConnect=0;targetShapes=umlLifeline;portConstraint=eastwest;newEdgeStyle={&quot;edgeStyle&quot;:&quot;elbowEdgeStyle&quot;,&quot;elbow&quot;:&quot;vertical&quot;,&quot;curved&quot;:0,&quot;rounded&quot;:0};" vertex="1" parent="e8dn4UOm1JDdTKsrlfhE-165">
          <mxGeometry x="40" y="70.34883720930232" width="10" height="468.99224806201545" as="geometry" />
        </mxCell>
        <mxCell id="e8dn4UOm1JDdTKsrlfhE-9" value="&lt;font size=&quot;1&quot;&gt;пользователь&lt;/font&gt;" style="text;html=1;align=center;verticalAlign=middle;resizable=0;points=[];autosize=1;strokeColor=none;fillColor=none;labelBackgroundColor=default;" vertex="1" parent="e8dn4UOm1JDdTKsrlfhE-165">
          <mxGeometry y="29.999767441860463" width="90" height="30" as="geometry" />
        </mxCell>
        <mxCell id="e8dn4UOm1JDdTKsrlfhE-126" value="opt" style="shape=umlFrame;whiteSpace=wrap;html=1;pointerEvents=0;fontSize=9;width=30;height=15;" vertex="1" parent="1">
          <mxGeometry x="180" y="780" width="790" height="160" as="geometry" />
        </mxCell>
        <mxCell id="e8dn4UOm1JDdTKsrlfhE-138" value="alt" style="shape=umlFrame;whiteSpace=wrap;html=1;pointerEvents=0;fontSize=9;width=30;height=15;" vertex="1" parent="1">
          <mxGeometry x="190" y="530" width="340" height="120" as="geometry" />
        </mxCell>
        <mxCell id="e8dn4UOm1JDdTKsrlfhE-134" value="loop" style="shape=umlFrame;whiteSpace=wrap;html=1;pointerEvents=0;fontSize=9;width=30;height=15;" vertex="1" parent="1">
          <mxGeometry x="170" y="470" width="380" height="190" as="geometry" />
        </mxCell>
      </root>
    </mxGraphModel>
  </diagram>
</mxfile>
